<svg xmlns="http://www.w3.org/2000/svg" viewBox="0 0 62 62" xmlns:bx="https://boxy-svg.com">
  <defs>
    <pattern x="0" y="0" width="25" height="25" patternUnits="userSpaceOnUse" viewBox="0 0 100 100" id="pattern-0">
      <rect x="0" y="0" width="50" height="100" style="fill: black;"></rect>
    </pattern>
    <pattern id="pattern-0-0" href="#pattern-0" patternTransform="matrix(1, 0, 0, 1, 18.5, 18.5)"></pattern>
    <linearGradient gradientUnits="userSpaceOnUse" x1="31" y1="0" x2="31" y2="62" id="gradient-0" spreadMethod="pad" gradientTransform="matrix(0.999985, 0.005382, -0.003574, 0.664051, 0.222034, 20.66198)">
      <stop offset="0" style="stop-color: rgb(252, 187, 59);"></stop>
      <stop offset="1" style="stop-color: rgb(0, 184, 169);"></stop>
    </linearGradient>
  </defs>
  <path d="M 56.433 39.016 C 56.476 39.011 56.517 39 56.561 39 L 60 39 L 60 31 L 56.561 31 C 56.056 31 55.619 30.638 55.514 30.104 C 55.415 29.608 55.679 29.11 56.146 28.915 L 59.324 27.599 L 56.262 20.208 L 53.082 21.524 C 52.615 21.716 52.075 21.549 51.773 21.098 C 51.491 20.677 51.544 20.116 51.9 19.756 L 54.334 17.322 L 49.668 12.656 L 50.237 10 L 46.426 10 L 38.402 6.677 L 37.086 9.855 C 36.895 10.319 36.405 10.586 35.965 10.503 L 35.861 10.48 C 35.362 10.383 35.002 9.947 35 9.439 L 35 6 L 29.473 6 C 26.94 2.378 22.745 0 18 0 L 9.675 0 L 11.137 5.12 C 12.154 8.653 14.432 11.69 17.539 13.655 C 17.459 13.889 17.304 14.09 17.098 14.226 C 16.678 14.508 16.113 14.455 15.756 14.099 L 13.322 11.665 L 7.666 17.321 L 10.1 19.755 C 10.456 20.111 10.509 20.676 10.207 21.127 C 9.926 21.548 9.387 21.713 8.918 21.523 L 5.738 20.207 L 2.676 27.598 L 5.854 28.914 C 6.319 29.106 6.584 29.606 6.502 30.035 L 6.479 30.139 C 6.382 30.637 5.947 30.998 5.439 31 L 2 31 L 2 39 L 5.439 39 C 5.483 39 5.524 39.011 5.567 39.016 C 2.144 42.294 0 46.898 0 52 L 0 62 L 62 62 L 62 52 C 62 46.898 59.856 42.294 56.433 39.016 Z M 51.506 17.322 L 50.486 18.342 C 49.45 19.388 49.301 21.023 50.131 22.239 C 50.943 23.452 52.497 23.925 53.848 23.371 L 55.18 22.82 L 56.71 26.515 L 55.38 27.066 C 54.037 27.622 53.269 29.063 53.558 30.525 C 53.842 31.96 55.098 32.996 56.561 33 L 58 33 L 58 37 L 56.561 37 C 55.901 37 55.283 37.23 54.766 37.609 C 53.888 36.95 52.951 36.373 51.968 35.884 C 51.98 35.59 52 35.297 52 35 C 52 29.853 50.126 24.972 46.741 21.134 C 47.766 19.763 48.482 18.187 48.841 16.514 L 49.169 14.984 L 51.506 17.322 Z M 28.819 52 L 33.18 52 L 34.78 60 L 27.22 60 L 28.819 52 Z M 33.307 50 L 28.692 50 L 26.682 44.638 C 27.07 44.501 27.464 44.381 27.863 44.277 L 31 47.414 L 34.136 44.278 C 34.535 44.382 34.929 44.502 35.317 44.639 L 33.307 50 Z M 12.002 35.05 L 12 35 C 12 31.2 13.152 27.483 15.266 24.356 L 16.06 26.341 C 16.396 27.183 16.856 27.969 17.425 28.675 C 16.631 30.384 16.166 32.228 16.055 34.109 C 14.672 34.264 13.312 34.579 12.002 35.05 L 12.002 35.05 Z M 39.993 25.636 C 42.291 27.845 43.698 30.822 43.945 34 L 32 34 L 32 26 L 37.107 26 C 38.097 26 39.063 25.87 39.993 25.636 L 39.993 25.636 Z M 32 43.586 L 32 36 L 39.586 36 L 32 43.586 Z M 22.414 36 L 30 36 L 30 43.586 L 22.414 36 Z M 30 25.807 L 29.94 25.658 C 29.45 24.433 28.698 23.331 27.735 22.429 C 28.478 22.24 29.236 22.116 30 22.059 L 30 25.807 Z M 28.083 26.4 L 29.522 30 L 24.416 30 C 21.551 30.009 18.972 28.264 17.917 25.6 L 16.477 22 L 21.584 22 C 24.449 21.991 27.028 23.736 28.083 26.4 L 28.083 26.4 Z M 18.956 30.136 C 20.52 31.343 22.44 31.999 24.416 32 L 30 32 L 30 34 L 18.061 34 C 18.164 32.671 18.461 31.366 18.956 30.136 L 18.956 30.136 Z M 32 18.878 L 32 16.028 C 32.569 16.058 33.134 16.117 33.695 16.197 C 33.042 17.032 32.475 17.93 32 18.878 Z M 30 16.049 L 30 20.055 C 28.527 20.154 27.07 20.468 25.683 20.993 C 24.415 20.342 23.01 20.002 21.584 20 L 19.366 20 C 22.419 17.619 26.133 16.239 30 16.049 Z M 19.586 36 L 26.254 42.668 C 23.782 43.495 21.534 44.88 19.683 46.716 L 18.153 36 L 19.586 36 Z M 35.746 42.668 L 42.414 36 L 43.847 36 L 42.317 46.716 C 40.466 44.88 38.218 43.495 35.746 42.668 L 35.746 42.668 Z M 45.953 34.111 C 45.755 30.691 44.392 27.442 42.092 24.903 C 43.314 24.339 44.434 23.576 45.406 22.645 C 48.372 26.078 50.002 30.464 50 35 L 49.998 35.05 C 48.691 34.58 47.333 34.265 45.953 34.111 Z M 46.886 16.095 C 45.904 20.676 41.792 24 37.107 24 L 32.325 24 L 32.853 22.153 C 34.562 16.176 40.097 12 46.314 12 L 47.762 12 L 46.886 16.095 Z M 33 8 L 33 9.439 C 33 10.897 34.041 12.16 35.508 12.449 C 36.94 12.732 38.372 11.967 38.934 10.62 L 39.485 9.29 L 42.393 10.494 C 39.725 11.182 37.278 12.543 35.286 14.446 C 34.203 14.22 33.105 14.081 32 14.028 L 32 14 C 32 11.851 31.499 9.822 30.63 8 L 33 8 Z M 13.061 4.571 L 12.325 2 L 18 2 C 24.617 2 30 7.383 30 14 L 25.561 14 C 19.787 14 14.646 10.123 13.061 4.571 Z M 5.439 37 L 4 37 L 4 33 L 5.439 33 C 6.897 33 8.16 31.959 8.449 30.492 C 8.73 29.061 7.966 27.629 6.62 27.066 L 5.29 26.515 L 6.82 22.82 L 8.152 23.371 C 9.493 23.925 11.057 23.452 11.886 22.213 C 12.7 20.999 12.544 19.379 11.513 18.342 L 10.493 17.322 L 13.321 14.494 L 14.341 15.514 C 15.372 16.545 16.998 16.701 18.238 15.87 C 18.705 15.557 19.077 15.123 19.314 14.614 C 20.392 15.112 21.525 15.479 22.69 15.708 C 20.322 16.734 18.165 18.189 16.326 19.999 L 13.522 19.999 L 14.392 22.173 C 11.553 25.847 10.009 30.357 10 35 C 10 35.297 10.02 35.59 10.032 35.884 C 9.049 36.372 8.112 36.95 7.234 37.609 C 6.716 37.219 6.087 37.006 5.439 37 Z M 2 52 C 2 43.805 8.197 37.038 16.149 36.116 L 18.337 51.428 L 19.982 49.375 C 21.302 47.727 22.958 46.377 24.839 45.417 L 26.964 51.084 L 25.18 60 L 12 60 L 12 49.697 L 9.832 46.445 L 8.168 47.554 L 10 50.303 L 10 60 L 2 60 L 2 52 Z M 60 60 L 52 60 L 52 50.303 L 53.832 47.555 L 52.168 46.446 L 50 49.697 L 50 60 L 36.82 60 L 35.036 51.084 L 37.161 45.417 C 39.042 46.378 40.698 47.727 42.019 49.375 L 43.663 51.428 L 45.851 36.116 C 53.803 37.038 60 43.805 60 52 L 60 60 Z" opacity="1" data-original="#000000" class="" style="stroke-linecap: round; stroke-linejoin: round; paint-order: stroke; fill-rule: nonzero; fill: rgb(0, 168, 119);">
    <bx:title>kontur</bx:title>
  </path>
  <g transform="matrix(1, 0, 0, 1, -0.999994, -0.999998)" style="visibility: hidden;">
    <path d="M 32.03 25.91 L 32.89 22.88 C 32.97 22.6 33.06 22.32 33.15 22.05 L 33.16 22.05 C 33.89 19.94 35.07 18.07 36.58 16.53 C 39.31 13.72 43.12 12.02 47.23 12 L 50 12 L 49.58 13.98 L 48.86 17.3 C 48.48 19.101 47.651 20.776 46.45 22.17 C 45.087 23.761 43.296 24.927 41.29 25.53 C 40.28 25.84 39.21 26 38.11 26 L 32 26 L 32 25.91 L 32.03 25.91 Z M 32 15 L 32 16 L 26.56 16 C 20.309 16.005 14.814 11.861 13.1 5.85 L 12 2 L 19 2 C 23.61 2 27.65 4.4 29.95 8.01 C 31.25 10.03 32 12.43 32 15 Z" opacity="1" data-original="#5cd6b3" class="" style="stroke: rgb(0, 0, 0); fill: none;">
      <bx:title>leafs</bx:title>
    </path>
    <path d="m21 36 8.16 8.16c-.95.22-1.88.51-2.77.9-2.4 1.01-4.53 2.62-6.19 4.69L20 50l-2-13.97c.33-.02.67-.03 1-.03zM34.84 44.16 43 36h2c.33 0 .67.01 1 .03L44 50l-.2-.25a15.805 15.805 0 0 0-6.19-4.69c-.89-.39-1.82-.68-2.77-.9z" opacity="1" data-original="#fc6e51" class="" style="stroke: rgb(0, 0, 0); fill: none;">
      <bx:title>vorot</bx:title>
    </path>
    <path d="m35 52 2 10H27l2-10z" opacity="1" data-original="#ccd1d9" style="stroke: rgb(0, 0, 0); fill: none;">
      <bx:title>galstuk</bx:title>
    </path>
    <path d="M37.61 45.06 35 52h-6l-2.61-6.94c.89-.39 1.82-.68 2.77-.9L32 47l2.84-2.84c.95.22 1.88.51 2.77.9z" opacity="1" data-original="#aab2bd" style="stroke: rgb(0, 0, 0); fill: none;">
      <bx:title>uzel</bx:title>
    </path>
    <path d="m21 36 11 11 11-11z" opacity="1" data-original="#e6e9ed" style="stroke: rgb(0, 0, 0); fill: none;">
      <bx:title>gorlo</bx:title>
    </path>
    <path d="M12 36c0 .5.02.99.05 1.48v.01a16.77 16.77 0 0 0-3.9 2.42c-.37-.55-1.01-.91-1.71-.91H4v-6h2.44c.99 0 1.83-.7 2.02-1.67 0-.01.01-.02.01-.03.19-.97-.32-1.93-1.23-2.31l-2.26-.93 2.3-5.55 2.26.94c.91.37 1.95.05 2.5-.77 0-.01.01-.01.02-.02.55-.82.44-1.91-.25-2.61l-1.73-1.73 4.24-4.24 1.73 1.73c.7.69 1.79.8 2.61.25.01-.01.01-.02.02-.02.64-.43.98-1.16.92-1.89 2.07 1.18 4.46 1.85 6.96 1.85H32c-5.59 0-10.65 2.3-14.28 6H16l.53 1.32A19.933 19.933 0 0 0 12 36zM47.23 12c-4.11.02-7.92 1.72-10.65 4.53-1.47-.35-3.01-.53-4.58-.53v-1c0-2.57-.75-4.97-2.05-6.99l.01-.01H35v2.44c0 .99.7 1.83 1.67 2.02.01 0 .02.01.03.01.97.19 1.93-.32 2.31-1.23l.93-2.26zM49.58 13.98l4.34 4.34-1.73 1.73c-.69.7-.8 1.79-.25 2.61.01.01.02.01.02.02.55.82 1.59 1.14 2.5.77l2.26-.94 2.3 5.55-2.26.93c-.91.38-1.42 1.34-1.23 2.31 0 .01.01.02.01.03.19.97 1.03 1.67 2.02 1.67H60v6h-2.44c-.7 0-1.34.36-1.71.91-1.18-.97-2.49-1.8-3.9-2.42v-.01c.03-.49.05-.98.05-1.48 0-5.37-2.11-10.24-5.55-13.83a10.91 10.91 0 0 0 2.41-4.87z" opacity="1" data-original="#ffc729" class="" style="stroke: rgb(0, 0, 0); fill: none;">
      <bx:title>shesterna</bx:title>
    </path>
    <path d="M17.99 26.97c.38.95.94 1.81 1.61 2.52C18.58 31.44 18 33.65 18 36v.03c-2.11.12-4.12.63-5.95 1.46v-.01c-.03-.49-.05-.98-.05-1.48 0-4.81 1.7-9.23 4.53-12.68zM32 16v6c-1.91 0-3.74.38-5.4 1.08v.01c-1.2-.7-2.57-1.09-4.02-1.09h-4.86c3.63-3.7 8.69-6 14.28-6zM36.58 16.53a14.771 14.771 0 0 0-3.42 5.52h-.01c-.39-.03-.76-.05-1.15-.05v-6c1.57 0 3.11.18 4.58.53zM52 36c0 .5-.02.99-.05 1.48v.01c-1.83-.83-3.84-1.34-5.95-1.46V36c0-4.17-1.82-7.91-4.71-10.47 2.02-.61 3.81-1.78 5.16-3.36C49.89 25.76 52 30.63 52 36z" opacity="1" data-original="#fcd770" style="stroke: rgb(0, 0, 0); fill: none;">
      <bx:title>duga</bx:title>
    </path>
    <path d="M31.97 31.92H32V32h-6.58a8.01 8.01 0 0 1-7.43-5.03l-1.46-3.65L16 22h6.58c1.45 0 2.82.39 4.02 1.09 1.51.87 2.73 2.24 3.41 3.94z" opacity="1" data-original="#48cfad" style="stroke-linecap: round; stroke-linejoin: round; stroke: rgb(0, 0, 0); fill: none;">
      <bx:title>leaf</bx:title>
    </path>
    <g style="" transform="matrix(1, 0, 0, 1, 1, 1)">
      <bx:title>rubashka</bx:title>
      <path style="stroke: rgb(0, 0, 0); fill: none;" d="M 9.426 47.55 L 11.134 50.012 L 11 61 L 1 61 L 1 52 C 0.994 45.299 4.932 39.222 11.05 36.49 C 12.88 35.66 14.89 35.15 17 35.03 L 19 49 L 19.2 48.75 C 20.86 46.68 22.99 45.07 25.39 44.06 L 28 51 L 26 61 L 11 61 L 11.224 50.045 L 9.426 47.55 Z"></path>
      <path style="stroke: rgb(0, 0, 0); fill: none;" d="M 52.89 47.198 L 50.98 50.062 L 51 61 L 36 61 L 34 51 L 36.61 44.06 C 39.01 45.07 41.14 46.68 42.8 48.75 L 43 49 L 45 35.03 C 47.11 35.15 49.12 35.66 50.95 36.49 C 57.068 39.222 61.006 45.299 61 52 L 61 61 L 51 61 L 50.975 49.962 L 52.89 47.198 Z"></path>
    </g>
    <path style="stroke: rgb(0, 0, 0); fill: none; stroke-width: 1.05px;" d="M 32.036 21.158 C 31.878 21.158 32.036 46.871 32.036 46.871"></path>
  </g>
</svg>