<?xml version="1.0" encoding="utf-8"?>
<svg xmlns="http://www.w3.org/2000/svg" viewBox="0 0 400 420" width="400px" height="420px">
  <path style="fill: rgb(124, 242, 220); visibility: hidden;" d="M 30.151 217.363 L 30.614 203.779 L 374.194 202.724 L 374.342 215.363 L 30.151 217.363 Z">
    <title>fon4</title>
  </path>
  <path style="fill: rgb(124, 242, 220); visibility: hidden;" d="M 119.054 218.488 L 119.138 199.078 L 286.291 199.374 L 286.439 217.363 L 119.054 218.488 Z">
    <title>fon4</title>
  </path>
  <path style="fill: rgb(81, 242, 203);" d="M 119.018 241.505 L 119.138 255.061 L 138.309 275.983 L 147.09 292.186 L 153.757 307.108 L 155.511 321.467 L 248.149 320.905 L 251.658 313.865 L 252.009 303.448 L 256.22 295.845 L 263.238 285.991 L 272.775 269.108 L 286.922 252.717 L 286.291 222.864 L 119.369 222.078 L 119.018 241.505 Z">
    <title>fon1</title>
  </path>
  <path style="fill: rgb(242, 212, 81); visibility: hidden;" d="M 119.018 192.96 L 106.406 122.52 L 136.914 98.567 L 160.073 85.935 L 181.478 79.268 L 203.585 77.513 L 221.832 79.268 L 242.535 84.531 L 261.133 93.655 L 279.029 108.041 C 279.029 108.041 299.64 122.733 299.991 122.733 C 300.342 122.733 286.291 193.374 286.291 193.374 L 119.018 192.96 Z">
    <title>fon2</title>
  </path>
  <path style="fill: rgb(255, 240, 74);" d="M 147.785 190.972 L 155.682 176.714 L 165.891 160.699 L 178.102 150.69 L 193.516 144.485 L 204.726 143.083 L 218.738 146.086 L 230.949 153.293 L 240.157 162.901 L 249.166 178.915 L 257.773 191.127 L 147.785 190.972 Z">
    <title>fon3</title>
  </path>
  <g transform="matrix(1, 0, 0, 1, -200.00946044921875, -90.00038146972656)">
    <title>luchi</title>
    <path style="stroke: rgb(0, 0, 0); fill: none; stroke-linejoin: round; stroke-width: 12px; stroke-linecap: round;" d="M 253.723 141.403 L 300 186.076"/>
    <path style="stroke: rgb(0, 0, 0); fill: none; stroke-linejoin: round; stroke-width: 12px; stroke-linecap: round;" d="M 506.3 414.599 L 552.577 459.272"/>
    <path style="stroke: rgb(0, 0, 0); fill: none; stroke-linejoin: round; transform-box: fill-box; transform-origin: 50% 50%; stroke-width: 12px; stroke-linecap: round;" d="M 507.102 140.601 L 553.379 185.274" transform="matrix(0, 1, -1, 0, 0.000018, -0.000009)"/>
    <path style="stroke: rgb(0, 0, 0); fill: none; stroke-linejoin: round; transform-origin: 277.664px 436.134px; stroke-width: 12px; stroke-linecap: round;" d="M 254.525 413.798 L 300.802 458.471" transform="matrix(0, 1, -1, 0, -0.000035, -0.000001)"/>
    <path style="stroke: rgb(0, 0, 0); fill: none; stroke-linejoin: round; transform-box: fill-box; transform-origin: 50% 50%; stroke-width: 12px; stroke-linecap: round;" d="M 385.68 106.831 L 416.491 134.573" transform="matrix(0.707107, 0.707107, -0.707107, 0.707107, -0.000003, 0.000015)"/>
  </g>
  <g transform="matrix(1, 0, 0, 1, -200.00946044921875, -90.00038146972656)">
    <title>right</title>
    <path style="fill: rgb(216, 216, 216); stroke: rgb(0, 0, 0); stroke-width: 15px;" d="M 504.009 227.886 L 504.446 387.68"/>
    <path style="fill: rgb(216, 216, 216); stroke: rgb(0, 0, 0); stroke-width: 15px;" d="M 532.646 240.486 L 533.219 365.916"/>
    <path style="fill: rgb(216, 216, 216); stroke: rgb(0, 0, 0); stroke-width: 15px;" d="M 564.147 260.532 L 564.719 341.288"/>
    <path style="paint-order: stroke; fill-rule: nonzero; stroke: rgb(0, 0, 0);" d="M 575.848 287.98 C 575.848 287.98 579.205 286.448 580.904 286.084 C 582.857 285.666 584.842 285.459 586.803 285.663 C 588.328 285.821 589.919 286.127 591.227 286.927 C 592.456 287.679 593.584 288.773 594.176 290.087 C 594.714 291.282 594.652 292.685 594.715 294 C 594.845 296.697 594.896 299.444 594.387 302.095 C 594.161 303.273 593.699 304.413 593.123 305.465 C 592.28 307.005 591.409 308.684 589.963 309.679 C 589.121 310.259 588.026 310.379 587.013 310.521 C 585.692 310.706 584.349 310.855 583.011 310.849 C 581.226 310.841 579.42 310.725 577.678 310.366 C 577.04 310.235 575.862 309.647 575.862 309.647 L 575.848 287.98 Z"/>
  </g>
  <g style="" transform="matrix(-1, 0, 0, 1, 604.8025512695312, -90.00038146972656)">
    <title>left</title>
    <path style="fill: rgb(216, 216, 216); stroke: rgb(0, 0, 0); stroke-width: 15px;" d="M 504.009 227.886 L 504.446 387.68"/>
    <path style="fill: rgb(216, 216, 216); stroke: rgb(0, 0, 0); stroke-width: 15px;" d="M 532.646 240.486 L 533.219 365.916"/>
    <path style="fill: rgb(216, 216, 216); stroke: rgb(0, 0, 0); stroke-width: 15px;" d="M 564.147 260.532 L 564.719 341.288"/>
    <path style="paint-order: stroke; fill-rule: nonzero; stroke: rgb(0, 0, 0);" d="M 575.848 289.98 C 575.848 289.98 579.205 288.448 580.904 288.084 C 582.857 287.666 584.842 287.459 586.803 287.663 C 588.328 287.821 589.919 288.127 591.227 288.927 C 592.456 289.679 593.584 290.773 594.176 292.087 C 594.714 293.282 594.652 294.685 594.715 296 C 594.845 298.697 594.896 301.444 594.387 304.095 C 594.161 305.273 593.699 306.413 593.123 307.465 C 592.28 309.005 591.409 310.684 589.963 311.679 C 589.121 312.259 588.026 312.379 587.013 312.521 C 585.692 312.706 584.349 312.855 583.011 312.849 C 581.226 312.841 579.42 312.725 577.678 312.366 C 577.04 312.235 575.862 311.647 575.862 311.647 L 575.848 289.98 Z"/>
  </g>
  <path style="stroke: rgb(0, 0, 0); stroke-width: 10px; fill: rgb(255, 221, 0);" d="M 167.824 390.499 L 237.657 390.43 C 237.657 390.43 237.534 392.777 237.192 394.033 C 237.192 394.033 236.369 396.246 235.712 397.364 C 234.898 398.75 233.793 400.298 232.754 401.525 C 231.683 402.791 230.331 403.792 229.056 404.853 C 227.89 405.823 226.699 406.768 225.449 407.626 C 224.195 408.486 222.908 409.309 221.554 410 C 220.504 410.535 219.426 411.042 218.293 411.364 C 216.864 411.77 215.364 411.87 213.891 412.064 C 212.722 412.218 211.551 412.368 210.374 412.433 C 205.083 412.725 199.776 412.582 194.478 412.526 C 193.337 412.514 192.192 412.54 191.056 412.433 C 189.906 412.325 188.743 412.208 187.636 411.88 C 186.15 411.439 184.761 410.71 183.383 410 C 181.79 409.179 180.207 408.314 178.76 407.257 C 177.562 406.381 176.505 405.324 175.432 404.298 C 174.218 403.138 173.013 401.962 171.918 400.69 C 171.049 399.681 170.125 398.685 169.503 397.508 C 168.964 396.487 168.677 395.345 168.404 394.223 C 168.107 393.002 168.055 385.519 168.055 385.519">
    <title>niz</title>
  </path>
  <g transform="matrix(1, 0, 0, 1, -200.00946044921875, -90.00038146972656)">
    <title>sokol</title>
    <path style="fill: rgb(216, 216, 216); stroke: rgb(0, 0, 0); stroke-linejoin: round; stroke-width: 12px;" d="M 349.052 462.497 L 457.129 462.078"/>
    <path style="fill: rgb(216, 216, 216); stroke: rgb(0, 0, 0); stroke-linejoin: round; stroke-width: 12px;" d="M 349.052 436.497 L 457.129 436.078"/>
  </g>
  <path style="fill: rgb(216, 216, 216); stroke: rgb(0, 0, 0); stroke-linejoin: round; stroke-width: 12px;" d="M 119.138 197.864 L 286.291 197.078"/>
  <path style="fill: rgb(216, 216, 216); stroke: rgb(0, 0, 0); stroke-linejoin: round; stroke-width: 12px;" d="M 119.138 222.864 L 286.291 222.078"/>
  <path style="fill: rgb(216, 216, 216); stroke: rgb(0, 0, 0); stroke-linejoin: round; stroke-width: 12px;" d="M 149.043 322.497 L 257.12 322.078"/>
  <g style="" transform="matrix(1, 0, 0, 1, -200.00946044921875, -90.00038146972656)">
    <title>boka</title>
    <path d="M 486.849 334.608 C 486.849 334.608 487.34 348.072 485.919 355.628 C 484.277 363.655 481.136 371.671 477.577 378.745 C 474.253 385.269 469.918 391.647 465.285 397.196 C 462.911 399.999 457.822 406.003 453.898 409.711 C 448.865 414.468 445.148 416.685 445.148 416.685 L 445.148 400.504 C 445.148 400.504 451.364 395.185 456.089 389.486 C 460.362 384.413 463.939 379.184 466.865 373.335 C 470.204 366.753 472.815 360.274 474.149 353.293 C 475.458 347.089 475.053 335.378 475.053 335.378 C 474.997 336.054 486.905 333.932 486.849 334.608 Z" style="transform-box: fill-box; transform-origin: 50% 50%;" transform="matrix(-1, 0, 0, -1, -0.00005, 0.000029)"/>
    <path d="M 360.848 416.55 C 360.848 416.55 361.339 403.086 359.918 395.53 C 358.276 387.503 355.135 379.487 351.576 372.413 C 348.252 365.889 343.917 359.511 339.284 353.962 C 336.91 351.159 331.821 345.155 327.897 341.447 C 322.864 336.69 319.147 334.473 319.147 334.473 L 319.147 350.654 C 319.147 350.654 325.363 355.973 330.088 361.672 C 334.361 366.745 337.938 371.974 340.864 377.823 C 344.203 384.405 346.814 390.884 348.148 397.865 C 349.457 404.069 349.052 415.78 349.052 415.78 C 348.996 415.104 360.904 417.226 360.848 416.55 Z" style=""/>
  </g>
  <path d="M 199.991 141.872 C 192.99 141.872 181.852 144.924 171.317 154.879 C 166.048 159.859 161.668 165.847 158.523 172.496 C 156.951 175.82 155.672 179.341 154.74 182.98 C 154.273 184.799 153.889 186.665 153.596 188.551 C 153.45 189.493 153.325 190.449 153.224 191.407 C 153.173 191.885 153.128 192.369 153.089 192.851 C 153.05 193.333 152.99 194.294 152.99 194.294 C 152.989 194.297 153.987 194.371 153.986 194.374 C 153.986 194.374 154.047 193.408 154.086 192.932 C 154.124 192.456 154.168 191.985 154.218 191.512 C 154.318 190.567 154.44 189.635 154.585 188.704 C 154.874 186.843 155.248 185.024 155.708 183.228 C 156.629 179.636 157.875 176.205 159.427 172.923 C 162.532 166.36 166.801 160.523 172.004 155.606 C 182.413 145.77 201.088 141.872 208.369 143.764 C 211.14 144.484 203.899 141.872 199.991 141.872 Z M 204.072 141.872 C 213.931 141.872 223.546 144.924 234.081 154.879 C 239.35 159.859 243.73 165.847 246.875 172.496 C 248.447 175.82 249.726 179.341 250.658 182.98 C 251.125 184.799 251.509 186.665 251.802 188.551 C 251.948 189.493 252.073 190.449 252.174 191.407 C 252.225 191.885 252.27 192.369 252.309 192.851 C 252.348 193.333 252.408 194.294 252.408 194.294 C 252.409 194.297 251.411 194.371 251.412 194.374 C 251.412 194.374 251.351 193.408 251.312 192.932 C 251.274 192.456 251.23 191.985 251.18 191.512 C 251.08 190.567 250.958 189.635 250.813 188.704 C 250.524 186.843 250.15 185.024 249.69 183.228 C 248.769 179.636 247.523 176.205 245.971 172.923 C 242.866 166.36 238.597 160.523 233.394 155.606 C 222.985 145.77 207.153 141.872 193.742 143.637 C 193.742 143.637 196.381 141.872 204.072 141.872 Z" style="fill: none; stroke-width: 12px; stroke: rgb(0, 0, 0);">
    <title>duga2</title>
  </path>
  <path style="fill: none; stroke-width: 12px; stroke: rgb(0, 0, 0);" d="M 203.095 77.802 C 166.002 77.802 131.25 95.933 110.031 126.358 M 202.031 77.802 C 239.124 77.802 273.876 95.933 295.095 126.358">
    <title>duga1</title>
  </path>
</svg>