<svg xmlns="http://www.w3.org/2000/svg" viewBox="0 0 509.495 511.545">
  <g transform="matrix(1, 0, 0, 1, -4.064, 0.17123)">
    <path style="fill: none; stroke: rgb(33, 173, 133); stroke-width: 12px;" d="M 88.662 173.847 L 93.342 215.39 L 241.477 197.641 L 269.693 172.156 L 238.518 155.545 L 88.662 173.847 Z"></path>
    <path style="fill: none; stroke: rgb(33, 173, 133); stroke-width: 12px;" d="M 144.313 188.388 L 204.158 180.879"></path>
    <path style="fill: none; stroke: rgb(33, 173, 133); stroke-width: 12px;" d="M 125.199 190.208 L 133.163 189.298"></path>
  </g>
  <g transform="matrix(1, 0, 0, 1, -4.064, 0.17123)">
    <polygon style="fill: none; stroke: rgb(33, 173, 133); stroke-width: 12px;" points="46.467 237.918 17.34 257.259 45.784 279.104 196.422 279.787 195.967 237.462"></polygon>
    <path style="fill: none; stroke: rgb(33, 173, 133); stroke-width: 12px;" d="M 71.497 258.245 L 82.419 258.245"></path>
    <path style="fill: none; stroke: rgb(33, 173, 133); stroke-width: 12px;" d="M 93.569 258.473 L 174.122 258.245"></path>
  </g>
  <g transform="matrix(1, 0, 0, 1, -4.064, 0.17123)">
    <path style="fill: none; stroke: rgb(33, 173, 133); stroke-width: 12px;" d="M 93.797 328.229 L 154.552 328.456"></path>
    <path style="fill: none; stroke: rgb(33, 173, 133); stroke-width: 12px;" d="M 57.161 305.701 L 28.718 325.271 L 57.161 349.163 L 180.266 348.253 L 179.81 306.384 L 57.161 305.701 Z"></path>
    <path style="fill: none; stroke: rgb(33, 173, 133); stroke-width: 12px;" d="M 71.042 327.774 L 82.419 327.774"></path>
  </g>
  <g transform="matrix(1, 0, 0, 1, -4.064, 0.17123)">
    <path style="fill: none; stroke: rgb(33, 173, 133); stroke-width: 12px;" d="M 124.301 166.619 L 124.28 134.228 L 139.09 117.92 L 154.15 134.727 L 154.067 162.517 L 124.301 166.619 Z"></path>
    <path style="fill: none; stroke: rgb(33, 173, 133); stroke-width: 12px;" d="M 124.863 213.689 L 124.696 233.824"></path>
    <path style="fill: none; stroke: rgb(33, 173, 133); stroke-width: 12px;" d="M 154.317 211.526 L 154.317 235.239"></path>
    <path style="fill: none; stroke: rgb(33, 173, 133); stroke-width: 12px;" d="M 125.226 281.201 L 125.095 303.342"></path>
    <path style="fill: none; stroke: rgb(33, 173, 133); stroke-width: 12px;" d="M 153.721 281.07 L 153.852 303.014"></path>
    <path style="fill: none; stroke: rgb(33, 173, 133); stroke-width: 12px;" d="M 124.606 351.767 L 124.776 500"></path>
    <path style="fill: none; stroke: rgb(33, 173, 133); stroke-width: 12px;" d="M 153.706 351.427 L 154.217 500"></path>
  </g>
  <g transform="matrix(1, 0, 0, 1, -4.064, 0.17123)">
    <path style="fill: none; stroke: rgb(33, 173, 133); stroke-width: 12px;" d="M 245.12 371.914 L 277.852 372.05"></path>
    <path style="fill: none; stroke: rgb(33, 173, 133); stroke-width: 12px;" d="M 488.98 500 L 488.464 341.624 L 221.338 341.227 L 221.124 500"></path>
    <path style="fill: none; stroke: rgb(33, 173, 133); stroke-width: 12px;" d="M 246.96 339.047 L 265.775 307.087 L 368.614 306.571 L 388.203 339.304"></path>
    <path style="fill: none; stroke: rgb(33, 173, 133); stroke-width: 12px;" d="M 440.782 339.304 L 440.524 306.056 L 471.711 306.313 L 471.711 339.82"></path>
  </g>
  <path style="fill: none; stroke: rgb(33, 173, 133); stroke-width: 12px;" d="M 10.553 501.015 L 499.495 501.545"></path>
  <g transform="matrix(1, 0, 0, 1, -4.064, 0.17123)">
    <g>
      <path style="fill: none; stroke: rgb(33, 173, 133); stroke-width: 12px;" d="M 69.888 10.947 L 69.888 29.817"></path>
      <path style="fill: none; stroke: rgb(33, 173, 133); stroke-width: 12px;" d="M 109.672 28.088 L 96.306 41.454"></path>
      <path style="fill: none; stroke: rgb(33, 173, 133); stroke-width: 12px;" d="M 107.313 68.029 L 126.026 67.714"></path>
      <path style="fill: none; stroke: rgb(33, 173, 133); stroke-width: 12px;" d="M 96.777 95.705 L 109.515 108.442"></path>
      <path style="fill: none; stroke: rgb(33, 173, 133); stroke-width: 12px;" d="M 70.202 106.241 L 70.045 125.74"></path>
      <path style="fill: none; stroke: rgb(33, 173, 133); stroke-width: 12px;" d="M 43.784 95.076 L 30.575 108.599"></path>
      <path style="fill: none; stroke: rgb(33, 173, 133); stroke-width: 12px;" d="M 14.064 68.029 L 32.934 68.186"></path>
      <path style="fill: none; stroke: rgb(33, 173, 133); stroke-width: 12px;" d="M 30.89 27.773 L 43.942 40.51"></path>
    </g>
    <ellipse style="fill: none; stroke: rgb(33, 173, 133); stroke-width: 12px;" cx="70.124" cy="68.265" rx="21.779" ry="21.779"></ellipse>
  </g>
  <g transform="matrix(1, 0, 0, 1, -4.064, 0.17123)">
    <path style="fill: none; stroke: rgb(33, 173, 133); stroke-width: 12px;" d="M 173.043 103.498 C 186.392 103.498 197.189 114.365 197.103 127.714"></path>
    <path style="transform-box: fill-box; transform-origin: 50% 50%; fill: none; stroke: rgb(33, 173, 133); stroke-width: 12px;" d="M 197.103 127.714 C 210.452 127.714 221.248 116.847 221.163 103.498" transform="matrix(-1, 0, 0, -1, 0.000012, -0.000003)"></path>
  </g>
  <g transform="matrix(1, 0, 0, 1, 31.6925, -73.3284)">
    <path style="fill: none; stroke: rgb(33, 173, 133); stroke-width: 12px;" d="M 169.638 100.66 C 182.987 100.66 197.189 114.365 197.103 127.714"></path>
    <path style="transform-box: fill-box; transform-origin: 50% 50%; fill: none; stroke: rgb(33, 173, 133); stroke-width: 12px;" d="M 192.562 130.977 C 205.911 130.977 221.248 116.847 221.163 103.498" transform="matrix(-1, 0, 0, -1, 4.540658, -3.263006)"></path>
  </g>
  <g transform="matrix(1, 0, 0, 1, 244.187, 94.0919)">
    <path style="fill: none; stroke: rgb(33, 173, 133); stroke-width: 12px;" d="M 173.043 103.498 C 186.392 103.498 197.189 114.365 197.103 127.714"></path>
    <path style="transform-box: fill-box; transform-origin: 50% 50%; fill: none; stroke: rgb(33, 173, 133); stroke-width: 12px;" d="M 197.103 127.714 C 210.452 127.714 221.248 116.847 221.163 103.498" transform="matrix(-1, 0, 0, -1, 0.000012, -0.000003)"></path>
  </g>
  <g transform="matrix(1, 0, 0, 1, -4.064, 0.17123)">
    <ellipse style="fill: none; stroke: rgb(33, 173, 133); stroke-width: 12px;" cx="354.787" cy="421.182" rx="19.912" ry="19.912"></ellipse>
    <ellipse style="stroke-linejoin: round; stroke-linecap: round; fill: none; stroke: rgb(33, 173, 133); stroke-width: 12px;" cx="354.411" cy="420.938" rx="61.027" ry="61.027"></ellipse>
    <path style="fill: none; stroke: rgb(33, 173, 133); stroke-width: 12px;" d="M 316.83 407.463 C 316.83 407.463 319.07 402.688 322.413 398.126 C 324.478 395.309 327.273 392.677 329.29 390.991 C 331.33 389.285 334.488 386.929 337.625 385.427 C 342.245 383.215 346.723 382.169 346.723 382.169"></path>
  </g>
  <path style="fill: none; stroke: rgb(33, 173, 133); stroke-width: 12px;" d="M 417.248 120.57 C 417.248 120.57 455.774 121.145 475.07 120.418 C 479.405 120.255 483.516 117.037 486.149 113.589 C 488.979 109.884 490.451 104.819 490.095 100.171 C 489.704 95.067 487.273 89.803 483.569 86.271 C 481.074 83.892 477.398 82.953 474.008 82.325 C 468.037 81.219 455.796 81.566 455.796 81.566 C 455.796 81.566 455.09 73.756 453.368 70.335 C 450.677 64.987 446.536 60.111 441.53 56.828 C 435.978 53.187 422.104 50.758 422.104 50.758"></path>
  <g transform="matrix(1, 0, 0, 1, -4.064, 0.17123)">
    <path style="fill: none; stroke: rgb(33, 173, 133); stroke-width: 12px;" d="M 338.668 162.869 L 338.495 183.446"></path>
    <path style="fill: none; stroke: rgb(33, 173, 133); stroke-width: 12px;" d="M 366.681 162.696 L 366.681 183.446"></path>
    <path style="fill: none; stroke: rgb(33, 173, 133); stroke-width: 12px;" d="M 325.561 186.179 C 325.561 186.179 324.722 210.839 325.708 221.635 C 326.172 226.711 331.998 231.109 337.031 231.91 C 346.902 233.48 358.987 233.265 367.911 232.352 C 373.297 231.801 379.354 226.996 380.116 221.635 C 381.651 210.834 380.263 186.032 380.263 186.032 L 325.561 186.179 Z"></path>
    <path style="fill: none; stroke: rgb(33, 173, 133); stroke-width: 12px;" d="M 331.961 162.696 C 331.961 162.696 324.506 155.923 316.575 145.256 C 312.201 139.373 308.064 132.358 303.918 124.752 C 297.185 112.399 291.606 95.507 290.09 84.967 C 288.439 73.485 290.306 58.484 295.736 46.994 C 299.774 38.452 306.576 29.69 313.471 23.985 C 330.862 9.595 352.496 9.829 352.496 9.829 C 352.496 9.829 342.031 15.024 338.668 19.598 C 332.221 28.367 328.594 48.446 328.594 48.446 C 326.308 59.568 325.897 71.795 326.228 82.428 C 326.655 96.146 328.711 109.781 331.553 123.257 C 334.362 136.575 342.773 162.696 342.773 162.696"></path>
    <path style="transform-box: fill-box; transform-origin: 50% 50%; fill: none; stroke: rgb(33, 173, 133); stroke-width: 12px;" d="M 393.962 9.829 C 393.962 9.829 378.568 26.375 366.905 47.773 C 360.172 60.126 354.593 77.018 353.077 87.558 C 351.426 99.04 353.293 114.041 358.723 125.531 C 362.761 134.073 369.563 142.835 376.458 148.54 C 393.849 162.93 416.052 162.869 416.052 162.869 C 416.052 162.869 405.018 157.501 401.655 152.927 C 395.208 144.158 391.581 124.079 391.581 124.079 C 389.295 112.957 388.884 100.73 389.215 90.097 C 389.642 76.379 391.698 62.744 394.54 49.268 C 397.349 35.95 405.76 9.829 405.76 9.829" transform="matrix(-1, 0, 0, -1, 0.000012, -0.000024)"></path>
    <path style="fill: none; stroke: rgb(33, 173, 133); stroke-width: 12px;" d="M 342.079 16.121 C 342.079 16.121 348.706 13.199 352.412 13.21 C 356.118 13.221 364.314 16.186 364.314 16.186"></path>
    <path style="fill: none; stroke: rgb(33, 173, 133); stroke-width: 12px;" d="M 329.093 161.563 L 377.528 161.597"></path>
  </g>
</svg>